<svg width="1644" height="822" viewBox="0 0 1644 822" fill="none" xmlns="http://www.w3.org/2000/svg">
<g clip-path="url(#clip0)">
<rect width="822" height="411" fill="white" transform="scale(2)"/>
<rect width="1644" height="822" fill="#147AAB"/>
<rect width="493" height="374" fill="black" fill-opacity="0" transform="translate(328 58) scale(2)"/>
<mask id="path-2-inside-1" fill="white">
<path fill-rule="evenodd" clip-rule="evenodd" d="M409.798 181.738L489.386 302.131H1153.58L1232.69 181.738H409.798ZM1237.08 175.049L1314 58H328L405.377 175.049H1237.08ZM1149.18 308.82H493.807L571.921 426.984H1071.53L1149.18 308.82ZM1067.14 433.672H576.342L655.93 554.066H988.025L1067.14 433.672ZM983.63 560.754H660.351L738.465 678.918H905.982L983.63 560.754ZM901.587 685.607H742.886L822.474 806L901.587 685.607Z"/>
</mask>
<path d="M489.386 302.131L486.049 304.337L487.235 306.131H489.386V302.131ZM409.798 181.738V177.738H402.359L406.461 183.944L409.798 181.738ZM1153.58 302.131V306.131H1155.73L1156.92 304.328L1153.58 302.131ZM1232.69 181.738L1236.03 183.934L1240.1 177.738H1232.69V181.738ZM1314 58L1317.34 60.1967L1321.41 54H1314V58ZM1237.08 175.049V179.049H1239.24L1240.43 177.246L1237.08 175.049ZM328 58V54H320.561L324.663 60.2058L328 58ZM405.377 175.049L402.04 177.255L403.226 179.049H405.377V175.049ZM493.807 308.82V304.82H486.368L490.47 311.026L493.807 308.82ZM1149.18 308.82L1152.52 311.016L1156.6 304.82H1149.18V308.82ZM571.921 426.984L568.584 429.189L569.77 430.984H571.921V426.984ZM1071.53 426.984V430.984H1073.69L1074.88 429.18L1071.53 426.984ZM1067.14 433.672L1070.48 435.869L1074.55 429.672H1067.14V433.672ZM576.342 433.672V429.672H568.903L573.005 435.878L576.342 433.672ZM655.93 554.066L652.593 556.271L653.779 558.066H655.93V554.066ZM988.025 554.066V558.066H990.183L991.368 556.262L988.025 554.066ZM660.351 560.754V556.754H652.912L657.014 562.96L660.351 560.754ZM983.63 560.754L986.973 562.951L991.045 556.754H983.63V560.754ZM738.465 678.918L735.128 681.124L736.314 682.918H738.465V678.918ZM905.982 678.918V682.918H908.14L909.325 681.115L905.982 678.918ZM742.886 685.607V681.607H735.447L739.55 687.812L742.886 685.607ZM901.587 685.607L904.93 687.803L909.002 681.607H901.587V685.607ZM822.474 806L819.137 808.206L822.484 813.269L825.817 808.197L822.474 806ZM492.722 299.925L413.135 179.532L406.461 183.944L486.049 304.337L492.722 299.925ZM1153.58 298.131H489.386V306.131H1153.58V298.131ZM1229.35 179.541L1150.23 299.935L1156.92 304.328L1236.03 183.934L1229.35 179.541ZM1232.69 177.738H409.798V185.738H1232.69V177.738ZM1310.66 55.8033L1233.74 172.853L1240.43 177.246L1317.34 60.1967L1310.66 55.8033ZM328 62H1314V54H328V62ZM408.713 172.843L331.337 55.7942L324.663 60.2058L402.04 177.255L408.713 172.843ZM405.377 179.049H1237.08V171.049H405.377V179.049ZM493.807 312.82H1149.18V304.82H493.807V312.82ZM575.258 424.778L497.144 306.614L490.47 311.026L568.584 429.189L575.258 424.778ZM571.921 430.984H1071.53V422.984H571.921V430.984ZM1145.84 306.623L1068.19 424.787L1074.88 429.18L1152.52 311.016L1145.84 306.623ZM1067.14 429.672H576.342V437.672H1067.14V429.672ZM659.266 551.86L579.679 431.466L573.005 435.878L652.593 556.271L659.266 551.86ZM988.025 550.066H655.93V558.066H988.025V550.066ZM1063.8 431.475L984.682 551.869L991.368 556.262L1070.48 435.869L1063.8 431.475ZM660.351 564.754H983.63V556.754H660.351V564.754ZM741.802 676.712L663.688 558.548L657.014 562.96L735.128 681.124L741.802 676.712ZM905.982 674.918H738.465V682.918H905.982V674.918ZM980.287 558.557L902.639 676.721L909.325 681.115L986.973 562.951L980.287 558.557ZM742.886 689.607H901.587V681.607H742.886V689.607ZM825.811 803.794L746.223 683.401L739.55 687.812L819.137 808.206L825.811 803.794ZM898.244 683.41L819.131 803.803L825.817 808.197L904.93 687.803L898.244 683.41Z" fill="white" mask="url(#path-2-inside-1)"/>
<rect x="706" y="722" width="230" height="42" fill="#147AAB"/>
<path d="M762.403 121.253C760.875 121.253 759.535 121.072 758.385 120.709C757.235 120.331 756.203 119.874 755.289 119.338L756.352 115.816C757.298 116.368 758.243 116.825 759.189 117.187C760.15 117.534 761.245 117.707 762.474 117.707C763.404 117.707 764.074 117.534 764.483 117.187C764.893 116.841 765.098 116.376 765.098 115.793C765.098 115.068 764.838 114.572 764.318 114.304C763.798 114.036 762.9 113.76 761.623 113.476C759.465 112.988 757.944 112.318 757.062 111.467C756.195 110.616 755.762 109.387 755.762 107.78C755.762 106.126 756.329 104.731 757.463 103.596C758.598 102.446 760.339 101.871 762.687 101.871C763.822 101.871 764.964 102.076 766.114 102.486C767.28 102.879 768.202 103.273 768.88 103.667L768.052 107.024C767.107 106.551 766.209 106.173 765.358 105.889C764.523 105.606 763.64 105.464 762.711 105.464C761.938 105.464 761.371 105.613 761.009 105.913C760.646 106.212 760.465 106.653 760.465 107.236C760.465 107.819 760.686 108.284 761.127 108.631C761.568 108.978 762.514 109.301 763.963 109.6C766.122 110.057 767.635 110.727 768.502 111.609C769.384 112.492 769.825 113.792 769.825 115.509C769.825 117.337 769.171 118.755 767.863 119.764C766.555 120.756 764.735 121.253 762.403 121.253ZM786.356 117.66C785.726 119.031 784.907 119.976 783.898 120.496C782.89 121.001 781.345 121.253 779.265 121.253C777.311 121.253 775.665 120.804 774.325 119.906C772.986 119.007 772.316 117.644 772.316 115.816V112.058C772.316 110.356 772.923 109.025 774.136 108.064C775.35 107.087 777.036 106.598 779.194 106.598C781.337 106.598 783.008 107.087 784.205 108.064C785.419 109.025 786.025 110.372 786.025 112.106V114.871H777.043V116.147C777.043 116.809 777.217 117.337 777.563 117.731C777.926 118.109 778.54 118.298 779.407 118.298C780.085 118.298 780.668 118.196 781.156 117.991C781.66 117.77 782.102 117.321 782.48 116.644L786.356 117.66ZM777.043 111.586V112.507H781.298V111.798C781.298 110.916 781.156 110.301 780.873 109.955C780.589 109.608 780.022 109.435 779.171 109.435C778.32 109.435 777.753 109.6 777.469 109.931C777.185 110.246 777.043 110.798 777.043 111.586ZM798.325 121.276C796.356 121.276 794.835 120.827 793.764 119.929C792.708 119.031 792.18 117.755 792.18 116.1V110.144H788.871V106.835H792.18V102.107H796.907V106.835H802.107V110.144H796.907V115.438C796.907 116.336 797.096 116.982 797.475 117.376C797.868 117.755 798.396 117.944 799.058 117.944C799.421 117.944 799.846 117.92 800.335 117.873C800.823 117.81 801.327 117.676 801.847 117.471L802.32 120.686C802.005 120.827 801.485 120.961 800.76 121.087C800.035 121.213 799.224 121.276 798.325 121.276ZM814.88 121.276C812.91 121.276 811.39 120.827 810.318 119.929C809.263 119.031 808.735 117.755 808.735 116.1V110.144H805.426V106.835H808.735V102.107H813.462V106.835H818.662V110.144H813.462V115.438C813.462 116.336 813.651 116.982 814.029 117.376C814.423 117.755 814.951 117.944 815.613 117.944C815.975 117.944 816.401 117.92 816.889 117.873C817.378 117.81 817.882 117.676 818.402 117.471L818.875 120.686C818.56 120.827 818.04 120.961 817.315 121.087C816.59 121.213 815.778 121.276 814.88 121.276ZM822.217 121.016V117.707H826.471V110.144H822.217V106.835H831.198V117.707H835.453V121.016H822.217ZM829.095 104.707C828.197 104.707 827.464 104.573 826.897 104.306C826.345 104.038 826.069 103.573 826.069 102.911V102.556C826.069 101.879 826.345 101.398 826.897 101.115C827.464 100.831 828.197 100.689 829.095 100.689C829.993 100.689 830.718 100.831 831.269 101.115C831.837 101.398 832.12 101.879 832.12 102.556V102.911C832.12 103.573 831.837 104.038 831.269 104.306C830.702 104.573 829.977 104.707 829.095 104.707ZM838.535 121.016V106.835H843.262V109.435H843.971C844.349 108.536 844.94 107.843 845.744 107.355C846.548 106.85 847.477 106.598 848.533 106.598C849.715 106.598 850.629 106.976 851.275 107.733C851.921 108.473 852.244 109.521 852.244 110.876V121.016H847.517V111.704C847.517 111.199 847.391 110.813 847.139 110.546C846.902 110.278 846.563 110.144 846.122 110.144C845.634 110.144 845.129 110.278 844.609 110.546C844.089 110.798 843.64 111.184 843.262 111.704V121.016H838.535ZM869.508 121.631C869.508 122.923 869.011 123.971 868.019 124.775C867.042 125.578 865.71 125.98 864.024 125.98H859.959C858.084 125.98 856.681 125.649 855.751 124.987C854.838 124.341 854.381 123.569 854.381 122.671C854.381 121.867 854.633 121.229 855.137 120.756C855.641 120.268 856.256 119.984 856.981 119.906V119.433C856.398 119.244 855.901 118.968 855.491 118.606C855.098 118.243 854.901 117.684 854.901 116.927C854.901 116.045 855.216 115.336 855.846 114.8C856.476 114.249 857.241 113.918 858.139 113.807V113.335C857.319 113.13 856.681 112.799 856.224 112.342C855.783 111.885 855.562 111.302 855.562 110.593V110.546C855.562 109.332 856.09 108.41 857.146 107.78C858.218 107.15 859.51 106.835 861.022 106.835H869.508V109.435L865.631 109.009V109.482C866.214 109.639 866.695 109.939 867.073 110.38C867.451 110.806 867.641 111.294 867.641 111.846V111.94C867.641 113.106 867.105 114.004 866.033 114.635C864.962 115.249 863.646 115.556 862.086 115.556H860.006C859.486 115.556 859.076 115.643 858.777 115.816C858.478 115.99 858.328 116.273 858.328 116.667C858.328 117.061 858.478 117.345 858.777 117.518C859.076 117.692 859.486 117.778 860.006 117.778H864.166C865.805 117.778 867.105 118.101 868.066 118.747C869.027 119.378 869.508 120.339 869.508 121.631ZM861.59 113.429C862.22 113.429 862.669 113.295 862.937 113.027C863.221 112.759 863.362 112.405 863.362 111.964V110.782C863.362 110.388 863.221 110.057 862.937 109.789C862.669 109.521 862.22 109.387 861.59 109.387C860.959 109.387 860.502 109.521 860.219 109.789C859.951 110.057 859.817 110.388 859.817 110.782V111.964C859.817 112.405 859.951 112.759 860.219 113.027C860.487 113.295 860.944 113.429 861.59 113.429ZM860.006 123.38H863.977C864.481 123.38 864.899 123.309 865.23 123.167C865.561 123.026 865.726 122.695 865.726 122.175C865.726 121.655 865.561 121.324 865.23 121.182C864.899 121.056 864.481 120.993 863.977 120.993H858.824V122.08C858.824 122.49 858.919 122.805 859.108 123.026C859.313 123.262 859.612 123.38 860.006 123.38ZM878.523 121.158C877.293 121.158 876.056 121.001 874.812 120.686C873.583 120.355 872.527 119.906 871.644 119.338L872.708 116.526C873.653 117.109 874.662 117.55 875.733 117.849C876.821 118.133 877.79 118.275 878.641 118.275C879.334 118.275 879.823 118.172 880.106 117.967C880.39 117.747 880.532 117.424 880.532 116.998C880.532 116.51 880.366 116.155 880.035 115.935C879.704 115.698 879.153 115.541 878.381 115.462C876.364 115.257 874.812 114.863 873.724 114.28C872.653 113.697 872.117 112.712 872.117 111.326C872.117 109.876 872.669 108.726 873.772 107.875C874.89 107.024 876.411 106.598 878.333 106.598C879.295 106.598 880.311 106.74 881.383 107.024C882.47 107.292 883.439 107.67 884.29 108.158L883.463 110.806C882.564 110.349 881.698 110.018 880.863 109.813C880.027 109.592 879.247 109.482 878.523 109.482C877.924 109.482 877.49 109.592 877.223 109.813C876.955 110.018 876.821 110.317 876.821 110.711C876.821 111.215 877.057 111.562 877.53 111.751C878.018 111.94 878.767 112.098 879.775 112.224C881.65 112.46 883.029 112.909 883.912 113.571C884.794 114.217 885.235 115.178 885.235 116.455C885.235 117.904 884.66 119.055 883.51 119.906C882.359 120.741 880.697 121.158 878.523 121.158Z" fill="white"/>
<path d="M770.925 248.335C768.624 248.335 766.859 247.775 765.63 246.657C764.401 245.522 763.787 243.899 763.787 241.787V235.595C763.787 233.452 764.393 231.813 765.607 230.678C766.836 229.528 768.601 228.953 770.901 228.953C773.202 228.953 774.927 229.465 776.078 230.489C777.228 231.514 777.858 232.979 777.969 234.886L773.241 235.122C773.162 234.129 772.95 233.444 772.603 233.066C772.272 232.687 771.721 232.498 770.949 232.498C770.035 232.498 769.396 232.758 769.034 233.278C768.687 233.783 768.514 234.712 768.514 236.067V241.315C768.514 242.638 768.679 243.552 769.01 244.057C769.357 244.545 769.979 244.789 770.878 244.789C771.776 244.789 772.398 244.553 772.745 244.08C773.092 243.592 773.257 242.725 773.241 241.48H770.878V237.935H777.969V241.787C777.969 243.899 777.362 245.522 776.149 246.657C774.935 247.775 773.194 248.335 770.925 248.335ZM794.618 244.742C793.987 246.113 793.168 247.058 792.16 247.578C791.151 248.083 789.607 248.335 787.527 248.335C785.573 248.335 783.926 247.886 782.587 246.987C781.247 246.089 780.578 244.726 780.578 242.898V239.14C780.578 237.438 781.184 236.107 782.398 235.146C783.611 234.169 785.297 233.68 787.456 233.68C789.599 233.68 791.269 234.169 792.467 235.146C793.68 236.107 794.287 237.454 794.287 239.187V241.953H785.305V243.229C785.305 243.891 785.478 244.419 785.825 244.813C786.187 245.191 786.802 245.38 787.669 245.38C788.346 245.38 788.929 245.278 789.418 245.073C789.922 244.852 790.363 244.403 790.741 243.726L794.618 244.742ZM785.305 238.667V239.589H789.56V238.88C789.56 237.998 789.418 237.383 789.134 237.037C788.85 236.69 788.283 236.517 787.432 236.517C786.581 236.517 786.014 236.682 785.73 237.013C785.447 237.328 785.305 237.88 785.305 238.667ZM797.132 248.098V233.917H801.86V236.517H802.569C802.947 235.618 803.538 234.925 804.342 234.437C805.145 233.932 806.075 233.68 807.131 233.68C808.312 233.68 809.226 234.058 809.872 234.815C810.518 235.555 810.842 236.603 810.842 237.958V248.098H806.114V238.786C806.114 238.281 805.988 237.895 805.736 237.627C805.5 237.36 805.161 237.226 804.72 237.226C804.231 237.226 803.727 237.36 803.207 237.627C802.687 237.88 802.238 238.266 801.86 238.786V248.098H797.132ZM827.727 244.742C827.097 246.113 826.277 247.058 825.269 247.578C824.26 248.083 822.716 248.335 820.636 248.335C818.682 248.335 817.036 247.886 815.696 246.987C814.357 246.089 813.687 244.726 813.687 242.898V239.14C813.687 237.438 814.294 236.107 815.507 235.146C816.72 234.169 818.407 233.68 820.565 233.68C822.708 233.68 824.379 234.169 825.576 235.146C826.79 236.107 827.396 237.454 827.396 239.187V241.953H818.414V243.229C818.414 243.891 818.588 244.419 818.934 244.813C819.297 245.191 819.911 245.38 820.778 245.38C821.456 245.38 822.039 245.278 822.527 245.073C823.031 244.852 823.473 244.403 823.851 243.726L827.727 244.742ZM818.414 238.667V239.589H822.669V238.88C822.669 237.998 822.527 237.383 822.243 237.037C821.96 236.69 821.393 236.517 820.542 236.517C819.691 236.517 819.123 236.682 818.84 237.013C818.556 237.328 818.414 237.88 818.414 238.667ZM830.715 248.098V233.917H835.442V236.517H836.151C836.498 235.524 837.049 234.807 837.805 234.366C838.562 233.909 839.452 233.68 840.476 233.68C841.705 233.68 842.627 234.035 843.242 234.744C843.872 235.437 844.187 236.422 844.187 237.698V240.346H839.933V239.046C839.933 238.494 839.807 238.053 839.555 237.722C839.318 237.391 838.885 237.226 838.255 237.226C837.719 237.226 837.199 237.352 836.695 237.604C836.19 237.84 835.773 238.266 835.442 238.88V248.098H830.715ZM847.033 248.098V244.789H851.287V237.226H847.033V233.917H856.015V244.789H860.269V248.098H847.033ZM853.911 231.789C853.013 231.789 852.28 231.655 851.713 231.387C851.161 231.12 850.886 230.655 850.886 229.993V229.638C850.886 228.961 851.161 228.48 851.713 228.197C852.28 227.913 853.013 227.771 853.911 227.771C854.809 227.771 855.534 227.913 856.086 228.197C856.653 228.48 856.936 228.961 856.936 229.638V229.993C856.936 230.655 856.653 231.12 856.086 231.387C855.518 231.655 854.793 231.789 853.911 231.789ZM870.418 248.335C868.134 248.335 866.385 247.854 865.171 246.893C863.958 245.932 863.351 244.545 863.351 242.733V239.187C863.351 237.438 863.958 236.083 865.171 235.122C866.4 234.161 868.141 233.68 870.395 233.68C872.569 233.68 874.169 234.153 875.193 235.098C876.217 236.028 876.848 237.336 877.084 239.022L872.522 239.4C872.443 238.502 872.238 237.88 871.908 237.533C871.577 237.186 871.025 237.013 870.253 237.013C869.449 237.013 868.882 237.202 868.551 237.58C868.236 237.943 868.078 238.589 868.078 239.518V242.497C868.078 243.442 868.244 244.104 868.575 244.482C868.906 244.844 869.481 245.026 870.3 245.026C871.072 245.026 871.616 244.884 871.931 244.6C872.262 244.317 872.459 243.812 872.522 243.087L877.084 243.466C876.974 245.026 876.454 246.231 875.524 247.082C874.594 247.917 872.892 248.335 870.418 248.335Z" fill="white"/>
<path d="M755.525 372.951V354.042H769.707V357.587H760.252V361.133H768.525V364.678H760.252V369.405H769.707V372.951H755.525ZM772.789 372.951V369.642H777.28V357.351H772.789V354.042H782.007V369.642H786.262V372.951H772.789ZM802.911 369.594C802.281 370.965 801.461 371.911 800.453 372.431C799.444 372.935 797.9 373.187 795.82 373.187C793.866 373.187 792.219 372.738 790.88 371.84C789.541 370.942 788.871 369.579 788.871 367.751V363.993C788.871 362.291 789.478 360.959 790.691 359.998C791.904 359.021 793.59 358.533 795.749 358.533C797.892 358.533 799.562 359.021 800.76 359.998C801.973 360.959 802.58 362.307 802.58 364.04V366.805H793.598V368.082C793.598 368.744 793.771 369.271 794.118 369.665C794.481 370.044 795.095 370.233 795.962 370.233C796.639 370.233 797.222 370.13 797.711 369.925C798.215 369.705 798.656 369.256 799.035 368.578L802.911 369.594ZM793.598 363.52V364.442H797.853V363.733C797.853 362.85 797.711 362.236 797.427 361.889C797.144 361.542 796.576 361.369 795.725 361.369C794.875 361.369 794.307 361.534 794.024 361.865C793.74 362.181 793.598 362.732 793.598 363.52ZM808.711 362.929V372.951H804.882V358.769H808.664V360.66H809.396C809.696 359.998 810.043 359.502 810.436 359.171C810.846 358.824 811.311 358.651 811.831 358.651C812.335 358.651 812.784 358.816 813.178 359.147C813.588 359.478 813.872 359.982 814.029 360.66H814.691C814.959 359.998 815.329 359.502 815.802 359.171C816.275 358.824 816.834 358.651 817.48 358.651C818.158 358.651 818.693 358.942 819.087 359.525C819.481 360.108 819.678 360.888 819.678 361.865V372.951H815.849V362.693C815.849 362.346 815.802 362.078 815.707 361.889C815.613 361.7 815.487 361.605 815.329 361.605C815.124 361.605 814.912 361.724 814.691 361.96C814.486 362.181 814.305 362.504 814.147 362.929V372.951H810.413V362.693C810.413 362.346 810.366 362.078 810.271 361.889C810.176 361.7 810.05 361.605 809.893 361.605C809.688 361.605 809.475 361.724 809.255 361.96C809.05 362.181 808.869 362.504 808.711 362.929ZM836.02 369.594C835.39 370.965 834.571 371.911 833.562 372.431C832.554 372.935 831.009 373.187 828.929 373.187C826.975 373.187 825.329 372.738 823.989 371.84C822.65 370.942 821.98 369.579 821.98 367.751V363.993C821.98 362.291 822.587 360.959 823.8 359.998C825.014 359.021 826.7 358.533 828.858 358.533C831.001 358.533 832.672 359.021 833.869 359.998C835.083 360.959 835.689 362.307 835.689 364.04V366.805H826.708V368.082C826.708 368.744 826.881 369.271 827.228 369.665C827.59 370.044 828.205 370.233 829.071 370.233C829.749 370.233 830.332 370.13 830.82 369.925C831.325 369.705 831.766 369.256 832.144 368.578L836.02 369.594ZM826.708 363.52V364.442H830.962V363.733C830.962 362.85 830.82 362.236 830.537 361.889C830.253 361.542 829.686 361.369 828.835 361.369C827.984 361.369 827.417 361.534 827.133 361.865C826.849 362.181 826.708 362.732 826.708 363.52ZM838.535 372.951V358.769H843.262V361.369H843.971C844.349 360.471 844.94 359.777 845.744 359.289C846.548 358.785 847.477 358.533 848.533 358.533C849.715 358.533 850.629 358.911 851.275 359.667C851.921 360.408 852.244 361.456 852.244 362.811V372.951H847.517V363.638C847.517 363.134 847.391 362.748 847.139 362.48C846.902 362.212 846.563 362.078 846.122 362.078C845.634 362.078 845.129 362.212 844.609 362.48C844.089 362.732 843.64 363.118 843.262 363.638V372.951H838.535ZM864.544 373.211C862.574 373.211 861.054 372.762 859.982 371.864C858.927 370.965 858.399 369.689 858.399 368.034V362.078H855.09V358.769H858.399V354.042H863.126V358.769H868.326V362.078H863.126V367.373C863.126 368.271 863.315 368.917 863.693 369.311C864.087 369.689 864.615 369.878 865.277 369.878C865.639 369.878 866.065 369.854 866.553 369.807C867.042 369.744 867.546 369.61 868.066 369.405L868.539 372.62C868.224 372.762 867.704 372.896 866.979 373.022C866.254 373.148 865.442 373.211 864.544 373.211ZM878.523 373.093C877.293 373.093 876.056 372.935 874.812 372.62C873.583 372.289 872.527 371.84 871.644 371.273L872.708 368.46C873.653 369.043 874.662 369.484 875.733 369.784C876.821 370.067 877.79 370.209 878.641 370.209C879.334 370.209 879.823 370.107 880.106 369.902C880.39 369.681 880.532 369.358 880.532 368.933C880.532 368.444 880.366 368.09 880.035 367.869C879.704 367.633 879.153 367.475 878.381 367.396C876.364 367.191 874.812 366.797 873.724 366.214C872.653 365.631 872.117 364.647 872.117 363.26C872.117 361.81 872.669 360.66 873.772 359.809C874.89 358.958 876.411 358.533 878.333 358.533C879.295 358.533 880.311 358.674 881.383 358.958C882.47 359.226 883.439 359.604 884.29 360.093L883.463 362.74C882.564 362.283 881.698 361.952 880.863 361.747C880.027 361.527 879.247 361.416 878.523 361.416C877.924 361.416 877.49 361.527 877.223 361.747C876.955 361.952 876.821 362.251 876.821 362.645C876.821 363.15 877.057 363.496 877.53 363.685C878.018 363.874 878.767 364.032 879.775 364.158C881.65 364.394 883.029 364.844 883.912 365.505C884.794 366.151 885.235 367.113 885.235 368.389C885.235 369.839 884.66 370.989 883.51 371.84C882.359 372.675 880.697 373.093 878.523 373.093Z" fill="white"/>
<path d="M770.878 500.269C768.561 500.269 766.796 499.733 765.583 498.662C764.385 497.59 763.787 496.101 763.787 494.195V487.056C763.787 485.134 764.393 483.629 765.607 482.542C766.82 481.439 768.585 480.887 770.901 480.887C773.218 480.887 774.975 481.439 776.172 482.542C777.37 483.629 777.969 485.134 777.969 487.056V494.195C777.969 496.101 777.362 497.59 776.149 498.662C774.951 499.733 773.194 500.269 770.878 500.269ZM770.878 496.724C771.729 496.724 772.335 496.495 772.698 496.038C773.06 495.581 773.241 494.809 773.241 493.722V487.529C773.241 486.442 773.06 485.654 772.698 485.166C772.335 484.677 771.729 484.433 770.878 484.433C770.027 484.433 769.42 484.677 769.058 485.166C768.695 485.654 768.514 486.442 768.514 487.529V493.722C768.514 494.809 768.695 495.581 769.058 496.038C769.42 496.495 770.027 496.724 770.878 496.724ZM787.267 500.175C786.132 500.175 784.99 500.025 783.84 499.726C782.705 499.41 781.618 498.961 780.578 498.378V481.124H785.305V488.451H786.014C786.377 487.537 786.928 486.836 787.669 486.347C788.409 485.859 789.284 485.615 790.292 485.615C791.506 485.615 792.475 486.048 793.2 486.915C793.924 487.766 794.287 488.908 794.287 490.342V494.856C794.287 496.59 793.688 497.913 792.49 498.827C791.293 499.726 789.552 500.175 787.267 500.175ZM787.527 496.889C788.189 496.889 788.693 496.739 789.04 496.44C789.386 496.125 789.56 495.589 789.56 494.833V491.264C789.56 490.539 789.402 490.011 789.087 489.68C788.787 489.333 788.393 489.16 787.905 489.16C787.464 489.16 787.03 489.262 786.605 489.467C786.195 489.656 785.762 489.948 785.305 490.342V496.298C785.699 496.503 786.069 496.653 786.416 496.747C786.763 496.842 787.133 496.889 787.527 496.889ZM801.34 504.996C800.599 504.996 799.851 504.957 799.094 504.878C798.338 504.815 797.613 504.673 796.92 504.453L797.392 501.475C798.023 501.664 798.614 501.782 799.165 501.829C799.717 501.892 800.237 501.924 800.725 501.924C801.671 501.924 802.411 501.75 802.947 501.404C803.483 501.057 803.751 500.482 803.751 499.678V489.16H797.865V485.851H808.478V500.08C808.478 501.609 807.84 502.806 806.563 503.673C805.303 504.555 803.562 504.996 801.34 504.996ZM805.878 483.724C804.98 483.724 804.247 483.59 803.68 483.322C803.128 483.054 802.852 482.589 802.852 481.927V481.573C802.852 480.895 803.128 480.415 803.68 480.131C804.247 479.847 804.98 479.706 805.878 479.706C806.776 479.706 807.501 479.847 808.052 480.131C808.62 480.415 808.903 480.895 808.903 481.573V481.927C808.903 482.589 808.62 483.054 808.052 483.322C807.485 483.59 806.76 483.724 805.878 483.724ZM827.727 496.676C827.097 498.047 826.277 498.993 825.269 499.513C824.26 500.017 822.716 500.269 820.636 500.269C818.682 500.269 817.036 499.82 815.696 498.922C814.357 498.024 813.687 496.661 813.687 494.833V491.075C813.687 489.373 814.294 488.041 815.507 487.08C816.72 486.103 818.407 485.615 820.565 485.615C822.708 485.615 824.379 486.103 825.576 487.08C826.79 488.041 827.396 489.389 827.396 491.122V493.887H818.414V495.164C818.414 495.826 818.588 496.353 818.934 496.747C819.297 497.126 819.911 497.315 820.778 497.315C821.456 497.315 822.039 497.212 822.527 497.007C823.031 496.787 823.473 496.338 823.851 495.66L827.727 496.676ZM818.414 490.602V491.524H822.669V490.815C822.669 489.932 822.527 489.318 822.243 488.971C821.96 488.624 821.393 488.451 820.542 488.451C819.691 488.451 819.123 488.616 818.84 488.947C818.556 489.262 818.414 489.814 818.414 490.602ZM837.309 500.269C835.024 500.269 833.275 499.789 832.062 498.827C830.848 497.866 830.242 496.479 830.242 494.667V491.122C830.242 489.373 830.848 488.018 832.062 487.056C833.291 486.095 835.032 485.615 837.285 485.615C839.46 485.615 841.059 486.087 842.084 487.033C843.108 487.962 843.738 489.27 843.975 490.956L839.413 491.335C839.334 490.436 839.129 489.814 838.798 489.467C838.467 489.121 837.916 488.947 837.144 488.947C836.34 488.947 835.773 489.136 835.442 489.515C835.127 489.877 834.969 490.523 834.969 491.453V494.431C834.969 495.376 835.135 496.038 835.465 496.416C835.796 496.779 836.371 496.96 837.191 496.96C837.963 496.96 838.507 496.818 838.822 496.535C839.153 496.251 839.35 495.747 839.413 495.022L843.975 495.4C843.864 496.96 843.344 498.166 842.415 499.016C841.485 499.852 839.783 500.269 837.309 500.269ZM856.251 500.293C854.281 500.293 852.761 499.844 851.689 498.946C850.633 498.047 850.106 496.771 850.106 495.116V489.16H846.796V485.851H850.106V481.124H854.833V485.851H860.033V489.16H854.833V494.455C854.833 495.353 855.022 495.999 855.4 496.393C855.794 496.771 856.322 496.96 856.984 496.96C857.346 496.96 857.772 496.936 858.26 496.889C858.749 496.826 859.253 496.692 859.773 496.487L860.246 499.702C859.93 499.844 859.41 499.978 858.686 500.104C857.961 500.23 857.149 500.293 856.251 500.293ZM870.229 500.175C869 500.175 867.763 500.017 866.518 499.702C865.289 499.371 864.234 498.922 863.351 498.355L864.415 495.542C865.36 496.125 866.369 496.566 867.44 496.866C868.528 497.149 869.497 497.291 870.348 497.291C871.041 497.291 871.529 497.189 871.813 496.984C872.097 496.763 872.238 496.44 872.238 496.015C872.238 495.526 872.073 495.172 871.742 494.951C871.411 494.715 870.86 494.557 870.088 494.478C868.071 494.273 866.518 493.879 865.431 493.296C864.36 492.713 863.824 491.729 863.824 490.342C863.824 488.892 864.375 487.742 865.478 486.891C866.597 486.04 868.118 485.615 870.04 485.615C871.001 485.615 872.018 485.756 873.089 486.04C874.177 486.308 875.146 486.686 875.997 487.175L875.169 489.822C874.271 489.365 873.405 489.034 872.569 488.829C871.734 488.609 870.954 488.498 870.229 488.498C869.631 488.498 869.197 488.609 868.929 488.829C868.661 489.034 868.528 489.333 868.528 489.727C868.528 490.232 868.764 490.578 869.237 490.767C869.725 490.956 870.474 491.114 871.482 491.24C873.357 491.476 874.736 491.926 875.618 492.587C876.501 493.233 876.942 494.195 876.942 495.471C876.942 496.921 876.367 498.071 875.217 498.922C874.066 499.757 872.404 500.175 870.229 500.175Z" fill="white"/>
<path d="M746.104 625.122C743.661 625.122 741.825 624.617 740.596 623.609C739.383 622.585 738.776 621.064 738.776 619.047V611.909C738.776 609.845 739.391 608.3 740.62 607.276C741.849 606.252 743.685 605.74 746.127 605.74C748.617 605.74 750.429 606.276 751.564 607.347C752.698 608.419 753.321 610.176 753.431 612.618L748.704 612.854C748.609 611.389 748.388 610.428 748.042 609.971C747.711 609.514 747.065 609.285 746.104 609.285C745.174 609.285 744.504 609.529 744.095 610.018C743.701 610.491 743.504 611.286 743.504 612.405V618.574C743.504 619.646 743.701 620.418 744.095 620.891C744.504 621.348 745.174 621.576 746.104 621.576C747.049 621.576 747.687 621.356 748.018 620.914C748.365 620.457 748.593 619.52 748.704 618.102L753.431 618.338C753.321 620.765 752.698 622.506 751.564 623.562C750.429 624.602 748.609 625.122 746.104 625.122ZM762.422 625.122C760.279 625.122 758.601 624.649 757.387 623.703C756.174 622.758 755.567 621.442 755.567 619.756V615.927C755.567 614.225 756.174 612.894 757.387 611.933C758.601 610.956 760.287 610.467 762.446 610.467C764.589 610.467 766.259 610.963 767.456 611.956C768.67 612.949 769.276 614.312 769.276 616.045V619.874C769.276 621.513 768.67 622.797 767.456 623.727C766.243 624.657 764.565 625.122 762.422 625.122ZM762.422 621.813C763.178 621.813 763.722 621.631 764.053 621.269C764.384 620.906 764.549 620.323 764.549 619.52V616.14C764.549 615.305 764.384 614.706 764.053 614.343C763.722 613.965 763.178 613.776 762.422 613.776C761.666 613.776 761.122 613.965 760.791 614.343C760.46 614.706 760.295 615.289 760.295 616.093V619.402C760.295 620.253 760.46 620.867 760.791 621.245C761.122 621.623 761.666 621.813 762.422 621.813ZM775.408 614.863V624.885H771.578V610.703H775.36V612.594H776.093C776.392 611.933 776.739 611.436 777.133 611.105C777.543 610.759 778.008 610.585 778.528 610.585C779.032 610.585 779.481 610.751 779.875 611.082C780.284 611.413 780.568 611.917 780.726 612.594H781.388C781.655 611.933 782.026 611.436 782.498 611.105C782.971 610.759 783.531 610.585 784.177 610.585C784.854 610.585 785.39 610.877 785.784 611.46C786.178 612.043 786.375 612.823 786.375 613.8V624.885H782.546V614.627C782.546 614.28 782.498 614.013 782.404 613.823C782.309 613.634 782.183 613.54 782.026 613.54C781.821 613.54 781.608 613.658 781.388 613.894C781.183 614.115 781.001 614.438 780.844 614.863V624.885H777.109V614.627C777.109 614.28 777.062 614.013 776.968 613.823C776.873 613.634 776.747 613.54 776.589 613.54C776.384 613.54 776.172 613.658 775.951 613.894C775.746 614.115 775.565 614.438 775.408 614.863ZM795.626 621.742C796.288 621.742 796.792 621.584 797.139 621.269C797.485 620.954 797.659 620.426 797.659 619.685V616.116C797.659 615.391 797.501 614.863 797.186 614.533C796.886 614.186 796.493 614.013 796.004 614.013C795.563 614.013 795.129 614.115 794.704 614.32C794.294 614.509 793.861 614.8 793.404 615.194V621.127C793.798 621.332 794.153 621.489 794.468 621.6C794.799 621.694 795.185 621.742 795.626 621.742ZM796.524 625.027C795.988 625.027 795.445 624.98 794.893 624.885C794.342 624.791 793.845 624.657 793.404 624.483V629.613H788.677V610.703H793.404V613.303H794.113C794.46 612.437 795.011 611.751 795.768 611.247C796.54 610.727 797.414 610.467 798.391 610.467C799.62 610.467 800.589 610.893 801.299 611.743C802.023 612.594 802.386 613.745 802.386 615.194V619.709C802.386 621.348 801.858 622.648 800.802 623.609C799.746 624.554 798.32 625.027 796.524 625.027ZM812.086 625.122C809.943 625.122 808.265 624.649 807.051 623.703C805.838 622.758 805.231 621.442 805.231 619.756V615.927C805.231 614.225 805.838 612.894 807.051 611.933C808.265 610.956 809.951 610.467 812.11 610.467C814.253 610.467 815.923 610.963 817.121 611.956C818.334 612.949 818.941 614.312 818.941 616.045V619.874C818.941 621.513 818.334 622.797 817.121 623.727C815.907 624.657 814.229 625.122 812.086 625.122ZM812.086 621.813C812.842 621.813 813.386 621.631 813.717 621.269C814.048 620.906 814.213 620.323 814.213 619.52V616.14C814.213 615.305 814.048 614.706 813.717 614.343C813.386 613.965 812.842 613.776 812.086 613.776C811.33 613.776 810.786 613.965 810.455 614.343C810.124 614.706 809.959 615.289 809.959 616.093V619.402C809.959 620.253 810.124 620.867 810.455 621.245C810.786 621.623 811.33 621.813 812.086 621.813ZM821.786 624.885V610.703H826.513V613.303H827.222C827.601 612.405 828.192 611.712 828.995 611.223C829.799 610.719 830.729 610.467 831.784 610.467C832.966 610.467 833.88 610.845 834.526 611.602C835.172 612.342 835.495 613.39 835.495 614.745V624.885H830.768V615.573C830.768 615.068 830.642 614.682 830.39 614.414C830.153 614.146 829.815 614.013 829.373 614.013C828.885 614.013 828.381 614.146 827.861 614.414C827.341 614.666 826.892 615.053 826.513 615.573V624.885H821.786ZM852.381 621.529C851.751 622.9 850.931 623.845 849.923 624.365C848.914 624.869 847.37 625.122 845.29 625.122C843.336 625.122 841.689 624.673 840.35 623.774C839.011 622.876 838.341 621.513 838.341 619.685V615.927C838.341 614.225 838.947 612.894 840.161 611.933C841.374 610.956 843.06 610.467 845.219 610.467C847.362 610.467 849.032 610.956 850.23 611.933C851.443 612.894 852.05 614.241 852.05 615.974V618.74H843.068V620.016C843.068 620.678 843.241 621.206 843.588 621.6C843.951 621.978 844.565 622.167 845.432 622.167C846.109 622.167 846.692 622.065 847.181 621.86C847.685 621.639 848.126 621.19 848.504 620.513L852.381 621.529ZM843.068 615.454V616.376H847.323V615.667C847.323 614.785 847.181 614.17 846.897 613.823C846.614 613.477 846.046 613.303 845.195 613.303C844.344 613.303 843.777 613.469 843.494 613.8C843.21 614.115 843.068 614.666 843.068 615.454ZM854.895 624.885V610.703H859.623V613.303H860.332C860.71 612.405 861.301 611.712 862.105 611.223C862.908 610.719 863.838 610.467 864.894 610.467C866.075 610.467 866.989 610.845 867.636 611.602C868.282 612.342 868.605 613.39 868.605 614.745V624.885H863.877V615.573C863.877 615.068 863.751 614.682 863.499 614.414C863.263 614.146 862.924 614.013 862.483 614.013C861.994 614.013 861.49 614.146 860.97 614.414C860.45 614.666 860.001 615.053 859.623 615.573V624.885H854.895ZM880.905 625.145C878.935 625.145 877.414 624.696 876.343 623.798C875.287 622.9 874.759 621.623 874.759 619.969V614.013H871.45V610.703H874.759V605.976H879.487V610.703H884.687V614.013H879.487V619.307C879.487 620.205 879.676 620.851 880.054 621.245C880.448 621.623 880.976 621.813 881.637 621.813C882 621.813 882.425 621.789 882.914 621.742C883.402 621.679 883.907 621.545 884.427 621.34L884.899 624.554C884.584 624.696 884.064 624.83 883.339 624.956C882.614 625.082 881.803 625.145 880.905 625.145ZM894.883 625.027C893.654 625.027 892.417 624.869 891.172 624.554C889.943 624.223 888.887 623.774 888.005 623.207L889.069 620.394C890.014 620.977 891.022 621.419 892.094 621.718C893.181 622.002 894.15 622.143 895.001 622.143C895.695 622.143 896.183 622.041 896.467 621.836C896.75 621.616 896.892 621.293 896.892 620.867C896.892 620.379 896.727 620.024 896.396 619.803C896.065 619.567 895.513 619.409 894.741 619.331C892.724 619.126 891.172 618.732 890.085 618.149C889.013 617.566 888.478 616.581 888.478 615.194C888.478 613.745 889.029 612.594 890.132 611.743C891.251 610.893 892.772 610.467 894.694 610.467C895.655 610.467 896.672 610.609 897.743 610.893C898.83 611.16 899.799 611.539 900.65 612.027L899.823 614.674C898.925 614.217 898.058 613.886 897.223 613.682C896.388 613.461 895.608 613.351 894.883 613.351C894.284 613.351 893.851 613.461 893.583 613.682C893.315 613.886 893.181 614.186 893.181 614.58C893.181 615.084 893.418 615.431 893.89 615.62C894.379 615.809 895.127 615.966 896.136 616.093C898.011 616.329 899.39 616.778 900.272 617.44C901.155 618.086 901.596 619.047 901.596 620.323C901.596 621.773 901.021 622.923 899.87 623.774C898.72 624.609 897.058 625.027 894.883 625.027Z" fill="white"/>
<path d="M763.054 752.204C760.627 752.204 758.839 751.652 757.689 750.549C756.538 749.446 755.963 747.736 755.963 745.42V733.058H760.69V745.184C760.69 746.444 760.872 747.303 761.234 747.76C761.596 748.201 762.203 748.422 763.054 748.422C763.905 748.422 764.512 748.201 764.874 747.76C765.236 747.303 765.418 746.444 765.418 745.184V733.058H770.145V745.42C770.145 747.736 769.57 749.446 768.419 750.549C767.269 751.652 765.481 752.204 763.054 752.204ZM782.209 752.227C780.239 752.227 778.718 751.778 777.647 750.88C776.591 749.982 776.063 748.705 776.063 747.051V741.094H772.754V737.785H776.063V733.058H780.79V737.785H785.99V741.094H780.79V746.389C780.79 747.287 780.98 747.933 781.358 748.327C781.752 748.705 782.28 748.894 782.941 748.894C783.304 748.894 783.729 748.871 784.218 748.824C784.706 748.761 785.21 748.627 785.73 748.422L786.203 751.636C785.888 751.778 785.368 751.912 784.643 752.038C783.918 752.164 783.107 752.227 782.209 752.227ZM789.545 751.967V748.658H793.8V741.094H789.545V737.785H798.527V748.658H802.782V751.967H789.545ZM796.423 735.658C795.525 735.658 794.792 735.524 794.225 735.256C793.674 734.988 793.398 734.524 793.398 733.862V733.507C793.398 732.83 793.674 732.349 794.225 732.065C794.792 731.782 795.525 731.64 796.423 731.64C797.322 731.64 798.046 731.782 798.598 732.065C799.165 732.349 799.449 732.83 799.449 733.507V733.862C799.449 734.524 799.165 734.988 798.598 735.256C798.031 735.524 797.306 735.658 796.423 735.658ZM806.336 751.967V748.658H810.827V736.367H806.336V733.058H815.554V748.658H819.809V751.967H806.336ZM822.655 751.967V748.658H826.909V741.094H822.655V737.785H831.636V748.658H835.891V751.967H822.655ZM829.533 735.658C828.635 735.658 827.902 735.524 827.335 735.256C826.783 734.988 826.507 734.524 826.507 733.862V733.507C826.507 732.83 826.783 732.349 827.335 732.065C827.902 731.782 828.635 731.64 829.533 731.64C830.431 731.64 831.156 731.782 831.707 732.065C832.275 732.349 832.558 732.83 832.558 733.507V733.862C832.558 734.524 832.275 734.988 831.707 735.256C831.14 735.524 830.415 735.658 829.533 735.658ZM848.427 752.227C846.458 752.227 844.937 751.778 843.866 750.88C842.81 749.982 842.282 748.705 842.282 747.051V741.094H838.973V737.785H842.282V733.058H847.009V737.785H852.209V741.094H847.009V746.389C847.009 747.287 847.198 747.933 847.577 748.327C847.97 748.705 848.498 748.894 849.16 748.894C849.523 748.894 849.948 748.871 850.437 748.824C850.925 748.761 851.429 748.627 851.949 748.422L852.422 751.636C852.107 751.778 851.587 751.912 850.862 752.038C850.137 752.164 849.326 752.227 848.427 752.227ZM869.568 748.611C868.937 749.982 868.118 750.927 867.109 751.447C866.101 751.951 864.557 752.204 862.477 752.204C860.523 752.204 858.876 751.754 857.537 750.856C856.197 749.958 855.528 748.595 855.528 746.767V743.009C855.528 741.307 856.134 739.976 857.348 739.014C858.561 738.038 860.247 737.549 862.406 737.549C864.549 737.549 866.219 738.038 867.417 739.014C868.63 739.976 869.237 741.323 869.237 743.056V745.822H860.255V747.098C860.255 747.76 860.428 748.288 860.775 748.682C861.137 749.06 861.752 749.249 862.618 749.249C863.296 749.249 863.879 749.147 864.368 748.942C864.872 748.721 865.313 748.272 865.691 747.594L869.568 748.611ZM860.255 742.536V743.458H864.509V742.749C864.509 741.867 864.368 741.252 864.084 740.905C863.8 740.559 863.233 740.385 862.382 740.385C861.531 740.385 860.964 740.551 860.68 740.882C860.397 741.197 860.255 741.748 860.255 742.536ZM878.96 752.109C877.731 752.109 876.494 751.951 875.25 751.636C874.02 751.305 872.965 750.856 872.082 750.289L873.146 747.476C874.091 748.059 875.1 748.501 876.171 748.8C877.259 749.084 878.228 749.225 879.079 749.225C879.772 749.225 880.26 749.123 880.544 748.918C880.828 748.698 880.97 748.374 880.97 747.949C880.97 747.461 880.804 747.106 880.473 746.885C880.142 746.649 879.591 746.491 878.819 746.413C876.802 746.208 875.25 745.814 874.162 745.231C873.091 744.648 872.555 743.663 872.555 742.276C872.555 740.827 873.106 739.676 874.21 738.825C875.328 737.974 876.849 737.549 878.771 737.549C879.733 737.549 880.749 737.691 881.82 737.974C882.908 738.242 883.877 738.621 884.728 739.109L883.9 741.756C883.002 741.299 882.136 740.968 881.3 740.764C880.465 740.543 879.685 740.433 878.96 740.433C878.362 740.433 877.928 740.543 877.66 740.764C877.393 740.968 877.259 741.268 877.259 741.662C877.259 742.166 877.495 742.513 877.968 742.702C878.456 742.891 879.205 743.048 880.213 743.174C882.088 743.411 883.467 743.86 884.35 744.522C885.232 745.168 885.673 746.129 885.673 747.405C885.673 748.855 885.098 750.005 883.948 750.856C882.797 751.691 881.135 752.109 878.96 752.109Z" fill="white"/>
</g>
<defs>
<clipPath id="clip0">
<rect width="822" height="411" fill="white" transform="scale(2)"/>
</clipPath>
</defs>
</svg>
